<mxfile host="app.diagrams.net" modified="2021-09-30T16:58:12.049Z" agent="5.0 (Windows NT 10.0; Win64; x64) AppleWebKit/537.36 (KHTML, like Gecko) Chrome/94.0.4606.61 Safari/537.36" etag="Wjn870Dc4rFquGHyLDp1" version="15.3.8" type="github">
  <diagram id="hqtz9fopxaKv153bjkZZ" name="Page-1">
    <mxGraphModel dx="1038" dy="1748" grid="1" gridSize="10" guides="1" tooltips="1" connect="1" arrows="1" fold="1" page="1" pageScale="1" pageWidth="827" pageHeight="1169" math="0" shadow="0">
      <root>
        <mxCell id="0" />
        <mxCell id="1" parent="0" />
        <mxCell id="_4PpxWSVg3C1DN0LY98l-28" style="edgeStyle=none;rounded=0;orthogonalLoop=1;jettySize=auto;html=1;" edge="1" parent="1" source="_4PpxWSVg3C1DN0LY98l-29" target="_4PpxWSVg3C1DN0LY98l-26">
          <mxGeometry relative="1" as="geometry">
            <mxPoint x="490" y="270" as="targetPoint" />
          </mxGeometry>
        </mxCell>
        <mxCell id="_4PpxWSVg3C1DN0LY98l-7" style="edgeStyle=none;rounded=0;orthogonalLoop=1;jettySize=auto;html=1;exitX=0.5;exitY=0;exitDx=0;exitDy=0;entryX=0.5;entryY=1;entryDx=0;entryDy=0;" edge="1" parent="1" source="_4PpxWSVg3C1DN0LY98l-2" target="_4PpxWSVg3C1DN0LY98l-6">
          <mxGeometry relative="1" as="geometry" />
        </mxCell>
        <mxCell id="_4PpxWSVg3C1DN0LY98l-2" value="post authorization" style="swimlane;fontStyle=0;childLayout=stackLayout;horizontal=1;startSize=30;horizontalStack=0;resizeParent=1;resizeParentMax=0;resizeLast=0;collapsible=1;marginBottom=0;" vertex="1" parent="1">
          <mxGeometry x="230" y="320" width="140" height="90" as="geometry" />
        </mxCell>
        <mxCell id="_4PpxWSVg3C1DN0LY98l-3" value="login" style="text;strokeColor=none;fillColor=none;align=left;verticalAlign=middle;spacingLeft=4;spacingRight=4;overflow=hidden;points=[[0,0.5],[1,0.5]];portConstraint=eastwest;rotatable=0;" vertex="1" parent="_4PpxWSVg3C1DN0LY98l-2">
          <mxGeometry y="30" width="140" height="30" as="geometry" />
        </mxCell>
        <mxCell id="_4PpxWSVg3C1DN0LY98l-4" value="pass" style="text;strokeColor=none;fillColor=none;align=left;verticalAlign=middle;spacingLeft=4;spacingRight=4;overflow=hidden;points=[[0,0.5],[1,0.5]];portConstraint=eastwest;rotatable=0;" vertex="1" parent="_4PpxWSVg3C1DN0LY98l-2">
          <mxGeometry y="60" width="140" height="30" as="geometry" />
        </mxCell>
        <mxCell id="_4PpxWSVg3C1DN0LY98l-15" style="edgeStyle=none;rounded=0;orthogonalLoop=1;jettySize=auto;html=1;entryX=0.5;entryY=1;entryDx=0;entryDy=0;" edge="1" parent="1" source="_4PpxWSVg3C1DN0LY98l-6" target="_4PpxWSVg3C1DN0LY98l-14">
          <mxGeometry relative="1" as="geometry" />
        </mxCell>
        <mxCell id="_4PpxWSVg3C1DN0LY98l-27" style="edgeStyle=none;rounded=0;orthogonalLoop=1;jettySize=auto;html=1;" edge="1" parent="1" source="_4PpxWSVg3C1DN0LY98l-6" target="_4PpxWSVg3C1DN0LY98l-26">
          <mxGeometry relative="1" as="geometry" />
        </mxCell>
        <mxCell id="_4PpxWSVg3C1DN0LY98l-6" value="is user in moodle?" style="rhombus;whiteSpace=wrap;html=1;" vertex="1" parent="1">
          <mxGeometry x="220" y="190" width="160" height="80" as="geometry" />
        </mxCell>
        <mxCell id="_4PpxWSVg3C1DN0LY98l-19" style="edgeStyle=none;rounded=0;orthogonalLoop=1;jettySize=auto;html=1;entryX=0.5;entryY=1;entryDx=0;entryDy=0;" edge="1" parent="1" source="_4PpxWSVg3C1DN0LY98l-12" target="_4PpxWSVg3C1DN0LY98l-17">
          <mxGeometry relative="1" as="geometry" />
        </mxCell>
        <mxCell id="_4PpxWSVg3C1DN0LY98l-12" value="Return ok&lt;br&gt;return token&lt;br&gt;return wait parsing" style="whiteSpace=wrap;html=1;aspect=fixed;" vertex="1" parent="1">
          <mxGeometry x="260" y="-30" width="80" height="80" as="geometry" />
        </mxCell>
        <mxCell id="_4PpxWSVg3C1DN0LY98l-16" style="edgeStyle=none;rounded=0;orthogonalLoop=1;jettySize=auto;html=1;entryX=0.5;entryY=1;entryDx=0;entryDy=0;" edge="1" parent="1" source="_4PpxWSVg3C1DN0LY98l-14" target="_4PpxWSVg3C1DN0LY98l-12">
          <mxGeometry relative="1" as="geometry" />
        </mxCell>
        <mxCell id="_4PpxWSVg3C1DN0LY98l-14" value="add in database&lt;br&gt;generate token" style="whiteSpace=wrap;html=1;aspect=fixed;" vertex="1" parent="1">
          <mxGeometry x="260" y="80" width="80" height="80" as="geometry" />
        </mxCell>
        <mxCell id="_4PpxWSVg3C1DN0LY98l-17" value="parsing user course, add to database" style="rounded=0;whiteSpace=wrap;html=1;" vertex="1" parent="1">
          <mxGeometry x="240" y="-130" width="120" height="60" as="geometry" />
        </mxCell>
        <mxCell id="_4PpxWSVg3C1DN0LY98l-31" style="edgeStyle=none;rounded=0;orthogonalLoop=1;jettySize=auto;html=1;entryX=0.5;entryY=1;entryDx=0;entryDy=0;" edge="1" parent="1" source="_4PpxWSVg3C1DN0LY98l-21" target="_4PpxWSVg3C1DN0LY98l-29">
          <mxGeometry relative="1" as="geometry" />
        </mxCell>
        <mxCell id="_4PpxWSVg3C1DN0LY98l-21" value="get all quiz_attempt" style="swimlane;fontStyle=0;childLayout=stackLayout;horizontal=1;startSize=30;horizontalStack=0;resizeParent=1;resizeParentMax=0;resizeLast=0;collapsible=1;marginBottom=0;" vertex="1" parent="1">
          <mxGeometry x="560" y="320" width="140" height="90" as="geometry" />
        </mxCell>
        <mxCell id="_4PpxWSVg3C1DN0LY98l-22" value="id" style="text;strokeColor=none;fillColor=none;align=left;verticalAlign=middle;spacingLeft=4;spacingRight=4;overflow=hidden;points=[[0,0.5],[1,0.5]];portConstraint=eastwest;rotatable=0;" vertex="1" parent="_4PpxWSVg3C1DN0LY98l-21">
          <mxGeometry y="30" width="140" height="30" as="geometry" />
        </mxCell>
        <mxCell id="_4PpxWSVg3C1DN0LY98l-23" value="user_token" style="text;strokeColor=none;fillColor=none;align=left;verticalAlign=middle;spacingLeft=4;spacingRight=4;overflow=hidden;points=[[0,0.5],[1,0.5]];portConstraint=eastwest;rotatable=0;" vertex="1" parent="_4PpxWSVg3C1DN0LY98l-21">
          <mxGeometry y="60" width="140" height="30" as="geometry" />
        </mxCell>
        <mxCell id="_4PpxWSVg3C1DN0LY98l-26" value="nahui idi" style="whiteSpace=wrap;html=1;aspect=fixed;" vertex="1" parent="1">
          <mxGeometry x="430" y="190" width="80" height="80" as="geometry" />
        </mxCell>
        <mxCell id="_4PpxWSVg3C1DN0LY98l-33" style="edgeStyle=none;rounded=0;orthogonalLoop=1;jettySize=auto;html=1;entryX=0.5;entryY=1;entryDx=0;entryDy=0;" edge="1" parent="1" source="_4PpxWSVg3C1DN0LY98l-29" target="_4PpxWSVg3C1DN0LY98l-32">
          <mxGeometry relative="1" as="geometry" />
        </mxCell>
        <mxCell id="_4PpxWSVg3C1DN0LY98l-29" value="is user_token valid?" style="rhombus;whiteSpace=wrap;html=1;" vertex="1" parent="1">
          <mxGeometry x="550" y="190" width="160" height="80" as="geometry" />
        </mxCell>
        <mxCell id="_4PpxWSVg3C1DN0LY98l-35" style="edgeStyle=none;rounded=0;orthogonalLoop=1;jettySize=auto;html=1;entryX=0.5;entryY=1;entryDx=0;entryDy=0;" edge="1" parent="1" source="_4PpxWSVg3C1DN0LY98l-32" target="_4PpxWSVg3C1DN0LY98l-34">
          <mxGeometry relative="1" as="geometry" />
        </mxCell>
        <mxCell id="_4PpxWSVg3C1DN0LY98l-32" value="get all attempt from database" style="whiteSpace=wrap;html=1;aspect=fixed;" vertex="1" parent="1">
          <mxGeometry x="590" y="80" width="80" height="80" as="geometry" />
        </mxCell>
        <mxCell id="_4PpxWSVg3C1DN0LY98l-34" value="return all attempt" style="whiteSpace=wrap;html=1;aspect=fixed;" vertex="1" parent="1">
          <mxGeometry x="590" y="-30" width="80" height="80" as="geometry" />
        </mxCell>
        <mxCell id="_4PpxWSVg3C1DN0LY98l-40" style="edgeStyle=none;rounded=0;orthogonalLoop=1;jettySize=auto;html=1;" edge="1" parent="1" source="_4PpxWSVg3C1DN0LY98l-36" target="_4PpxWSVg3C1DN0LY98l-39">
          <mxGeometry relative="1" as="geometry" />
        </mxCell>
        <mxCell id="_4PpxWSVg3C1DN0LY98l-36" value="get all quiz_attempt by text" style="swimlane;fontStyle=0;childLayout=stackLayout;horizontal=1;startSize=30;horizontalStack=0;resizeParent=1;resizeParentMax=0;resizeLast=0;collapsible=1;marginBottom=0;" vertex="1" parent="1">
          <mxGeometry x="710" y="320" width="140" height="90" as="geometry" />
        </mxCell>
        <mxCell id="_4PpxWSVg3C1DN0LY98l-37" value="text" style="text;strokeColor=none;fillColor=none;align=left;verticalAlign=middle;spacingLeft=4;spacingRight=4;overflow=hidden;points=[[0,0.5],[1,0.5]];portConstraint=eastwest;rotatable=0;" vertex="1" parent="_4PpxWSVg3C1DN0LY98l-36">
          <mxGeometry y="30" width="140" height="30" as="geometry" />
        </mxCell>
        <mxCell id="_4PpxWSVg3C1DN0LY98l-38" value="user_token" style="text;strokeColor=none;fillColor=none;align=left;verticalAlign=middle;spacingLeft=4;spacingRight=4;overflow=hidden;points=[[0,0.5],[1,0.5]];portConstraint=eastwest;rotatable=0;" vertex="1" parent="_4PpxWSVg3C1DN0LY98l-36">
          <mxGeometry y="60" width="140" height="30" as="geometry" />
        </mxCell>
        <mxCell id="_4PpxWSVg3C1DN0LY98l-39" value="" style="shape=tape;whiteSpace=wrap;html=1;" vertex="1" parent="1">
          <mxGeometry x="720" y="170" width="120" height="100" as="geometry" />
        </mxCell>
        <mxCell id="_4PpxWSVg3C1DN0LY98l-44" style="edgeStyle=none;rounded=0;orthogonalLoop=1;jettySize=auto;html=1;" edge="1" parent="1" source="_4PpxWSVg3C1DN0LY98l-45" target="_4PpxWSVg3C1DN0LY98l-48">
          <mxGeometry relative="1" as="geometry" />
        </mxCell>
        <mxCell id="_4PpxWSVg3C1DN0LY98l-45" value="get all exercise_attempt" style="swimlane;fontStyle=0;childLayout=stackLayout;horizontal=1;startSize=30;horizontalStack=0;resizeParent=1;resizeParentMax=0;resizeLast=0;collapsible=1;marginBottom=0;" vertex="1" parent="1">
          <mxGeometry x="860" y="320" width="140" height="90" as="geometry" />
        </mxCell>
        <mxCell id="_4PpxWSVg3C1DN0LY98l-46" value="text" style="text;strokeColor=none;fillColor=none;align=left;verticalAlign=middle;spacingLeft=4;spacingRight=4;overflow=hidden;points=[[0,0.5],[1,0.5]];portConstraint=eastwest;rotatable=0;" vertex="1" parent="_4PpxWSVg3C1DN0LY98l-45">
          <mxGeometry y="30" width="140" height="30" as="geometry" />
        </mxCell>
        <mxCell id="_4PpxWSVg3C1DN0LY98l-47" value="user_token" style="text;strokeColor=none;fillColor=none;align=left;verticalAlign=middle;spacingLeft=4;spacingRight=4;overflow=hidden;points=[[0,0.5],[1,0.5]];portConstraint=eastwest;rotatable=0;" vertex="1" parent="_4PpxWSVg3C1DN0LY98l-45">
          <mxGeometry y="60" width="140" height="30" as="geometry" />
        </mxCell>
        <mxCell id="_4PpxWSVg3C1DN0LY98l-48" value="" style="shape=tape;whiteSpace=wrap;html=1;" vertex="1" parent="1">
          <mxGeometry x="870" y="170" width="120" height="100" as="geometry" />
        </mxCell>
      </root>
    </mxGraphModel>
  </diagram>
</mxfile>
